<svg viewBox="0 0 240 240" xmlns="http://www.w3.org/2000/svg" role="img" aria-labelledby="title1">
    <title id="title1">Cadastro de estudante</title>
    <defs>
        <linearGradient id="g1" x1="0" x2="1" y1="0" y2="1">
            <stop offset="0%" stop-color="#6c8cff" />
            <stop offset="100%" stop-color="#9f7bff" />
        </linearGradient>
        <linearGradient id="g2" x1="0" x2="1">
            <stop offset="0%" stop-color="#fff" stop-opacity="0.9" />
            <stop offset="100%" stop-color="#fff" stop-opacity="0.7" />
        </linearGradient>
    </defs>


    <rect x="8" y="16" width="224" height="208" rx="22" fill="#eef3ff" />


    <!-- tablet / card -->
    <rect x="28" y="38" width="184" height="104" rx="10" fill="#ffffff" stroke="#e6ecff" stroke-width="2" />
    <rect x="48" y="58" width="124" height="18" rx="6" fill="url(#g1)" />
    <rect x="48" y="84" width="144" height="10" rx="5" fill="#f0f4ff" />
    <rect x="48" y="100" width="64" height="8" rx="4" fill="#f0f4ff" />


    <!-- perfil -->
    <circle cx="76" cy="154" r="28" fill="#ffd9b3" />
    <ellipse cx="76" cy="170" rx="18" ry="6" fill="#f1c293" />
    <rect x="108" y="132" width="82" height="42" rx="10" fill="#fff" stroke="#f0f4ff" />
    <path d="M116 144c8 0 24-2 32 0v12c-8 2-24 0-32 0z" fill="#6c8cff" opacity="0.95" />


    <!-- ícone botão -->
    <g transform="translate(152,172)">
        <rect x="0" y="0" width="54" height="28" rx="8" fill="url(#g1)" />
        <text x="27" y="18" font-size="11" font-weight="700" fill="#fff" text-anchor="middle"
            font-family="sans-serif">UniD</text>
    </g>


</svg>