<svg xmlns="http://www.w3.org/2000/svg" viewBox="0 0 500 350">
  <rect width="500" height="350" fill="#f9fafb" />

  <!-- Laptop -->
  <rect x="120" y="180" width="260" height="140" rx="12" ry="12" fill="#5c6bf2" />
  <rect x="140" y="200" width="220" height="100" rx="8" ry="8" fill="#fff" />
  <rect x="140" y="200" width="220" height="12" fill="#e5e7eb" />

  <!-- Tela -->
  <circle cx="250" cy="250" r="35" fill="#5c6bf2" opacity="0.15" />
  <path d="M230 250l15 15 25-30" stroke="#5c6bf2" stroke-width="5" fill="none" stroke-linecap="round"
    stroke-linejoin="round" />

  <!-- Pessoa ensinando -->
  <circle cx="250" cy="130" r="45" fill="#e0e7ff" />
  <circle cx="250" cy="120" r="25" fill="#5c6bf2" />
  <rect x="230" y="145" width="40" height="20" rx="8" fill="#5c6bf2" />

  <!-- Ícones flutuantes -->
  <!-- Livro -->
  <rect x="80" y="90" width="50" height="35" rx="4" fill="#ffd54f" />
  <path d="M105 90v35" stroke="#fbc02d" stroke-width="2" />

  <!-- Lâmpada -->
  <circle cx="400" cy="80" r="20" fill="#ffe082" />
  <rect x="395" y="100" width="10" height="10" rx="2" fill="#5c6bf2" />

  <!-- Dinheiro -->
  <rect x="380" y="230" width="70" height="40" rx="5" fill="#81c784" />
  <text x="415" y="257" font-size="22" font-weight="bold" text-anchor="middle" fill="#fff">$</text>

  <!-- Efeito de sombra -->
  <ellipse cx="250" cy="330" rx="140" ry="15" fill="rgba(0,0,0,0.08)" />
</svg>